<svg width="2857" height="3000" viewBox="0 0 2857 3000" fill="none" xmlns="http://www.w3.org/2000/svg">
<g clip-path="url(#clip0_1_28)">
<path d="M1666.4 202.132H650.484C571.704 202.132 507.841 266.026 507.841 344.843V2649.44C507.841 2728.26 571.704 2792.15 650.484 2792.15H1666.4C1745.18 2792.15 1809.05 2728.26 1809.05 2649.44V344.843C1809.05 266.026 1745.18 202.132 1666.4 202.132Z" fill="#1E284C"/>
<path d="M1666.4 2802.86H650.484C565.931 2802.86 497.143 2734.04 497.143 2649.44V344.843C497.143 260.25 565.931 191.429 650.484 191.429H1666.4C1750.96 191.429 1819.74 260.25 1819.74 344.843V2649.44C1819.74 2734.04 1750.96 2802.86 1666.4 2802.86ZM650.484 212.835C577.729 212.835 518.539 272.053 518.539 344.843V2649.44C518.539 2722.23 577.729 2781.45 650.484 2781.45H1666.4C1739.16 2781.45 1798.35 2722.23 1798.35 2649.44V344.843C1798.35 272.053 1739.16 212.835 1666.4 212.835H650.484Z" fill="#1E284C"/>
<path d="M1774.31 202.132H758.388C679.608 202.132 615.745 266.026 615.745 344.843V2649.44C615.745 2728.26 679.608 2792.15 758.388 2792.15H1774.31C1853.09 2792.15 1916.95 2728.26 1916.95 2649.44V344.843C1916.95 266.026 1853.09 202.132 1774.31 202.132Z" fill="white"/>
<path d="M1396.32 270.887H1136.37C1113.04 270.887 1094.13 289.807 1094.13 313.146C1094.13 336.485 1113.04 355.404 1136.37 355.404H1396.32C1419.65 355.404 1438.56 336.485 1438.56 313.146C1438.56 289.807 1419.65 270.887 1396.32 270.887Z" fill="#1E284C"/>
<path d="M1396.32 366.107H1136.37C1107.18 366.107 1083.44 342.349 1083.44 313.146C1083.44 283.943 1107.18 260.184 1136.37 260.184H1396.32C1425.51 260.184 1449.26 283.943 1449.26 313.146C1449.26 342.349 1425.51 366.107 1396.32 366.107ZM1136.37 281.591C1118.98 281.591 1104.83 295.746 1104.83 313.146C1104.83 330.545 1118.98 344.7 1136.37 344.7H1396.32C1413.71 344.7 1427.86 330.545 1427.86 313.146C1427.86 295.746 1413.71 281.591 1396.32 281.591H1136.37Z" fill="#1E284C"/>
<path d="M1772.37 2802.86H756.455C671.902 2802.86 603.114 2734.04 603.114 2649.44V344.843C603.114 260.25 671.902 191.429 756.455 191.429H1772.37C1856.92 191.429 1925.71 260.25 1925.71 344.843V2649.44C1925.71 2734.04 1856.93 2802.86 1772.37 2802.86ZM756.455 212.835C683.7 212.835 624.51 272.053 624.51 344.843V2649.44C624.51 2722.23 683.7 2781.45 756.455 2781.45H1772.37C1845.13 2781.45 1904.32 2722.23 1904.32 2649.44V344.843C1904.32 272.053 1845.13 212.835 1772.37 212.835H756.455Z" fill="#1E284C"/>
<path d="M1474.77 2741.91H1057.92C1055.08 2741.91 1052.36 2740.78 1050.35 2738.77C1048.35 2736.76 1047.22 2734.04 1047.22 2731.2C1047.22 2728.36 1048.35 2725.64 1050.35 2723.63C1052.36 2721.63 1055.08 2720.5 1057.92 2720.5H1474.77C1477.61 2720.5 1480.33 2721.63 1482.34 2723.63C1484.34 2725.64 1485.47 2728.36 1485.47 2731.2C1485.47 2734.04 1484.34 2736.76 1482.34 2738.77C1480.33 2740.78 1477.61 2741.91 1474.77 2741.91Z" fill="#1E284C"/>
</g>
<g clip-path="url(#clip1_1_28)">
<path d="M1722.27 2377.66H823.441C770.651 2377.66 727.857 2420.4 727.857 2473.11C727.857 2525.83 770.651 2568.57 823.441 2568.57H1722.27C1775.06 2568.57 1817.86 2525.83 1817.86 2473.11C1817.86 2420.4 1775.06 2377.66 1722.27 2377.66Z" fill="#6FA0FF"/>
<path d="M1050.99 2200.68H858.154C855.312 2200.68 852.587 2199.55 850.578 2197.55C848.569 2195.54 847.44 2192.82 847.44 2189.98C847.44 2187.14 848.569 2184.42 850.578 2182.42C852.587 2180.41 855.312 2179.28 858.154 2179.28H1050.99C1053.83 2179.28 1056.56 2180.41 1058.56 2182.42C1060.57 2184.42 1061.7 2187.14 1061.7 2189.98C1061.7 2192.82 1060.57 2195.54 1058.56 2197.55C1056.56 2199.55 1053.83 2200.68 1050.99 2200.68ZM1467.22 2200.68H1128.38C1125.54 2200.68 1122.82 2199.55 1120.81 2197.55C1118.8 2195.54 1117.67 2192.82 1117.67 2189.98C1117.67 2187.14 1118.8 2184.42 1120.81 2182.42C1122.82 2180.41 1125.54 2179.28 1128.38 2179.28H1467.22C1470.06 2179.28 1472.79 2180.41 1474.8 2182.42C1476.8 2184.42 1477.93 2187.14 1477.93 2189.98C1477.93 2192.82 1476.8 2195.54 1474.8 2197.55C1472.79 2199.55 1470.06 2200.68 1467.22 2200.68Z" fill="#1E284C"/>
<path d="M789.536 2150.62H744.998C735.531 2150.62 727.857 2158.29 727.857 2167.74V2212.22C727.857 2221.67 735.531 2229.34 744.998 2229.34H789.536C799.003 2229.34 806.678 2221.67 806.678 2212.22V2167.74C806.678 2158.29 799.003 2150.62 789.536 2150.62Z" fill="white"/>
<path d="M789.536 2240.04H744.998C729.639 2240.04 717.143 2227.56 717.143 2212.22V2167.74C717.143 2152.4 729.639 2139.92 744.998 2139.92H789.536C804.895 2139.92 817.392 2152.4 817.392 2167.74V2212.22C817.392 2227.56 804.895 2240.04 789.536 2240.04ZM744.998 2161.32C741.514 2161.32 738.57 2164.26 738.57 2167.74V2212.22C738.57 2215.7 741.514 2218.64 744.998 2218.64H789.536C793.02 2218.64 795.964 2215.7 795.964 2212.22V2167.74C795.964 2164.26 793.02 2161.32 789.536 2161.32H744.998Z" fill="#1E284C"/>
<path d="M1722.27 1878.78H823.441C770.651 1878.78 727.857 1921.52 727.857 1974.24C727.857 2026.96 770.651 2069.69 823.441 2069.69H1722.27C1775.06 2069.69 1817.86 2026.96 1817.86 1974.24C1817.86 1921.52 1775.06 1878.78 1722.27 1878.78Z" fill="white"/>
<path d="M1722.27 2080.39H823.441C764.829 2080.39 717.143 2032.77 717.143 1974.24C717.143 1915.7 764.829 1868.08 823.441 1868.08H1722.27C1780.89 1868.08 1828.57 1915.7 1828.57 1974.24C1828.57 2032.77 1780.89 2080.39 1722.27 2080.39ZM823.441 1889.48C776.644 1889.48 738.57 1927.5 738.57 1974.24C738.57 2020.97 776.644 2059 823.441 2059H1722.27C1769.07 2059 1807.15 2020.97 1807.15 1974.24C1807.15 1927.5 1769.07 1889.48 1722.27 1889.48H823.441Z" fill="#BCBCBC"/>
<path d="M1351.2 1984.94C1350.5 1984.94 1349.8 1984.87 1349.11 1984.73C1347.74 1984.45 1346.43 1983.91 1345.26 1983.13C1344.67 1982.74 1344.13 1982.3 1343.63 1981.8C1341.63 1979.79 1340.5 1977.07 1340.49 1974.24C1340.49 1973.54 1340.56 1972.84 1340.7 1972.15C1340.98 1970.77 1341.52 1969.47 1342.3 1968.3C1343.08 1967.13 1344.08 1966.12 1345.26 1965.34C1346.43 1964.57 1347.74 1964.03 1349.11 1963.75C1350.49 1963.47 1351.92 1963.47 1353.3 1963.75C1353.98 1963.88 1354.65 1964.09 1355.3 1964.36C1355.95 1964.63 1356.57 1964.96 1357.15 1965.34C1358.92 1966.51 1360.29 1968.19 1361.1 1970.14C1361.64 1971.44 1361.92 1972.83 1361.92 1974.24C1361.92 1977.06 1360.77 1979.81 1358.78 1981.8C1358.29 1982.29 1357.74 1982.74 1357.15 1983.13C1356.57 1983.52 1355.95 1983.85 1355.3 1984.12C1354.65 1984.38 1353.98 1984.59 1353.3 1984.73C1352.61 1984.87 1351.91 1984.94 1351.2 1984.94ZM1283.92 1974.24C1283.92 1968.33 1288.72 1963.54 1294.64 1963.54C1297.48 1963.54 1300.2 1964.67 1302.21 1966.67C1304.22 1968.68 1305.35 1971.4 1305.35 1974.24C1305.35 1977.08 1304.22 1979.8 1302.21 1981.8C1300.2 1983.81 1297.48 1984.94 1294.64 1984.94C1291.79 1984.94 1289.07 1983.81 1287.06 1981.8C1285.05 1979.8 1283.92 1977.08 1283.92 1974.24ZM1227.35 1974.24C1227.35 1971.4 1228.48 1968.68 1230.49 1966.67C1232.5 1964.67 1235.22 1963.54 1238.07 1963.54C1240.91 1963.54 1243.63 1964.67 1245.64 1966.67C1247.65 1968.68 1248.78 1971.4 1248.78 1974.24C1248.78 1977.08 1247.65 1979.8 1245.64 1981.8C1243.63 1983.81 1240.91 1984.94 1238.07 1984.94C1235.22 1984.94 1232.5 1983.81 1230.49 1981.8C1228.48 1979.8 1227.35 1977.08 1227.35 1974.24ZM1170.78 1974.24C1170.77 1972.82 1171.03 1971.42 1171.56 1970.11C1172.09 1968.79 1172.88 1967.6 1173.88 1966.59C1174.87 1965.59 1176.06 1964.79 1177.37 1964.24C1178.67 1963.7 1180.08 1963.41 1181.5 1963.41C1182.91 1963.41 1184.32 1963.7 1185.62 1964.24C1186.93 1964.79 1188.12 1965.59 1189.11 1966.59C1190.11 1967.6 1190.9 1968.79 1191.43 1970.11C1191.96 1971.42 1192.22 1972.82 1192.21 1974.24C1192.22 1975.65 1191.96 1977.06 1191.43 1978.37C1190.9 1979.68 1190.11 1980.88 1189.11 1981.88C1188.12 1982.89 1186.93 1983.69 1185.62 1984.23C1184.32 1984.78 1182.91 1985.06 1181.5 1985.06C1180.08 1985.06 1178.67 1984.78 1177.37 1984.23C1176.06 1983.69 1174.87 1982.89 1173.88 1981.88C1172.88 1980.88 1172.09 1979.68 1171.56 1978.37C1171.03 1977.06 1170.77 1975.65 1170.78 1974.24ZM1114.21 1974.24C1114.21 1971.4 1115.34 1968.68 1117.35 1966.67C1119.36 1964.67 1122.08 1963.54 1124.93 1963.54C1127.77 1963.54 1130.49 1964.67 1132.5 1966.67C1134.51 1968.68 1135.64 1971.4 1135.64 1974.24C1135.64 1977.08 1134.51 1979.8 1132.5 1981.8C1130.49 1983.81 1127.77 1984.94 1124.93 1984.94C1122.08 1984.94 1119.36 1983.81 1117.35 1981.8C1115.34 1979.8 1114.21 1977.08 1114.21 1974.24ZM1057.64 1974.24C1057.64 1972.83 1057.92 1971.44 1058.46 1970.14C1059 1968.84 1059.79 1967.67 1060.78 1966.67C1061.78 1965.68 1062.96 1964.89 1064.26 1964.35C1065.56 1963.81 1066.95 1963.54 1068.36 1963.54C1070.48 1963.54 1072.55 1964.17 1074.31 1965.34C1076.07 1966.52 1077.44 1968.19 1078.25 1970.14C1079.07 1972.1 1079.28 1974.25 1078.86 1976.33C1078.45 1978.4 1077.43 1980.31 1075.93 1981.8C1074.43 1983.3 1072.52 1984.32 1070.45 1984.73C1068.37 1985.14 1066.21 1984.93 1064.26 1984.12C1062.3 1983.31 1060.63 1981.94 1059.45 1980.18C1058.27 1978.42 1057.64 1976.35 1057.64 1974.24ZM1001.07 1974.24C1001.07 1968.33 1005.87 1963.54 1011.79 1963.54C1014.63 1963.54 1017.35 1964.67 1019.36 1966.67C1021.37 1968.68 1022.5 1971.4 1022.5 1974.24C1022.5 1977.08 1021.37 1979.8 1019.36 1981.8C1017.35 1983.81 1014.63 1984.94 1011.79 1984.94C1008.95 1984.94 1006.22 1983.81 1004.21 1981.8C1002.2 1979.8 1001.07 1977.08 1001.07 1974.24ZM944.505 1974.24C944.505 1968.33 949.3 1963.54 955.218 1963.54C958.06 1963.54 960.785 1964.67 962.794 1966.67C964.803 1968.68 965.932 1971.4 965.932 1974.24C965.932 1977.08 964.803 1979.8 962.794 1981.8C960.785 1983.81 958.06 1984.94 955.218 1984.94C952.377 1984.94 949.652 1983.81 947.643 1981.8C945.633 1979.8 944.505 1977.08 944.505 1974.24ZM887.935 1974.24C887.935 1971.4 889.064 1968.68 891.073 1966.67C893.082 1964.67 895.807 1963.54 898.649 1963.54C901.49 1963.54 904.215 1964.67 906.224 1966.67C908.233 1968.68 909.362 1971.4 909.362 1974.24C909.362 1977.08 908.233 1979.8 906.224 1981.8C904.215 1983.81 901.49 1984.94 898.649 1984.94C895.807 1984.94 893.082 1983.81 891.073 1981.8C889.064 1979.8 887.935 1977.08 887.935 1974.24ZM842.079 1984.94C839.962 1984.93 837.893 1984.31 836.132 1983.13C835.546 1982.74 835.001 1982.3 834.504 1981.8C832.501 1979.79 831.373 1977.07 831.365 1974.24C831.366 1972.83 831.645 1971.44 832.187 1970.14C832.454 1969.5 832.785 1968.88 833.171 1968.3C833.95 1967.12 834.957 1966.12 836.132 1965.34C836.712 1964.96 837.335 1964.63 837.98 1964.36C838.628 1964.09 839.3 1963.89 839.986 1963.75C841.368 1963.47 842.791 1963.47 844.173 1963.75C845.548 1964.03 846.856 1964.57 848.026 1965.34C849.201 1966.12 850.208 1967.12 850.987 1968.3C852.157 1970.06 852.785 1972.12 852.792 1974.24C852.784 1977.07 851.656 1979.79 849.654 1981.8C848.658 1982.79 847.477 1983.58 846.177 1984.12C844.878 1984.65 843.485 1984.93 842.079 1984.94Z" fill="#BCBCBC"/>
<path d="M1722.27 1613.56H823.441C770.651 1613.56 727.857 1656.29 727.857 1709.01C727.857 1761.73 770.651 1804.47 823.441 1804.47H1722.27C1775.06 1804.47 1817.86 1761.73 1817.86 1709.01C1817.86 1656.29 1775.06 1613.56 1722.27 1613.56Z" fill="white"/>
<path d="M1722.27 1815.17H823.441C764.829 1815.17 717.143 1767.55 717.143 1709.01C717.143 1650.48 764.829 1602.86 823.441 1602.86H1722.27C1780.89 1602.86 1828.57 1650.48 1828.57 1709.01C1828.57 1767.55 1780.89 1815.17 1722.27 1815.17ZM823.441 1624.26C776.644 1624.26 738.57 1662.28 738.57 1709.01C738.57 1755.75 776.644 1793.77 823.441 1793.77H1722.27C1769.07 1793.77 1807.15 1755.75 1807.15 1709.01C1807.15 1662.28 1769.07 1624.26 1722.27 1624.26H823.441Z" fill="#BCBCBC"/>
<path d="M1178.05 1719.71H839.213C836.372 1719.71 833.647 1718.59 831.638 1716.58C829.628 1714.57 828.5 1711.85 828.5 1709.01C828.5 1706.18 829.628 1703.45 831.638 1701.45C833.647 1699.44 836.372 1698.31 839.213 1698.31H1178.05C1180.89 1698.31 1183.62 1699.44 1185.62 1701.45C1187.63 1703.45 1188.76 1706.18 1188.76 1709.01C1188.76 1711.85 1187.63 1714.57 1185.62 1716.58C1183.62 1718.59 1180.89 1719.71 1178.05 1719.71H1178.05ZM1448.28 1719.71H1255.44C1252.6 1719.71 1249.88 1718.59 1247.87 1716.58C1245.86 1714.57 1244.73 1711.85 1244.73 1709.01C1244.73 1706.18 1245.86 1703.45 1247.87 1701.45C1249.88 1699.44 1252.6 1698.31 1255.44 1698.31H1448.28C1451.12 1698.31 1453.85 1699.44 1455.86 1701.45C1457.86 1703.45 1458.99 1706.18 1458.99 1709.01C1458.99 1711.85 1457.86 1714.57 1455.86 1716.58C1453.85 1718.59 1451.12 1719.71 1448.28 1719.71Z" fill="#BCBCBC"/>
</g>
<g clip-path="url(#clip2_1_28)">
<path d="M851.891 2485.71C849.051 2485.71 846.326 2484.59 844.315 2482.58C842.304 2480.57 841.173 2477.85 841.169 2475.01C841.165 2472.17 842.29 2469.44 844.295 2467.43C846.301 2465.42 849.023 2464.29 851.863 2464.29C875.453 2464.23 899.037 2463.55 922.591 2462.26C928.489 2461.9 933.547 2466.46 933.872 2472.36C933.95 2473.77 933.75 2475.18 933.284 2476.5C932.818 2477.83 932.095 2479.05 931.157 2480.1C930.219 2481.15 929.084 2482 927.816 2482.61C926.548 2483.22 925.173 2483.57 923.769 2483.65C900.196 2484.95 876.024 2485.64 851.92 2485.71H851.89L851.891 2485.71ZM752.028 2482.53C751.791 2482.53 751.555 2482.52 751.32 2482.51C743.36 2481.99 735.253 2481.39 727.22 2480.75C710.885 2479.43 694.798 2477.55 679.409 2475.16C676.602 2474.73 674.083 2473.2 672.406 2470.9C670.729 2468.61 670.031 2465.75 670.465 2462.94C670.9 2460.13 672.432 2457.61 674.724 2455.93C677.016 2454.26 679.88 2453.56 682.687 2453.99C697.563 2456.3 713.128 2458.12 728.945 2459.39C736.866 2460.03 744.864 2460.62 752.714 2461.13C755.491 2461.31 758.091 2462.56 759.962 2464.62C761.833 2466.68 762.83 2469.38 762.741 2472.16C762.651 2474.95 761.483 2477.58 759.483 2479.52C757.483 2481.45 754.81 2482.53 752.028 2482.53ZM1022.55 2474.32C1019.83 2474.32 1017.22 2473.28 1015.24 2471.42C1013.26 2469.57 1012.06 2467.03 1011.88 2464.32C1011.7 2461.61 1012.56 2458.93 1014.27 2456.83C1015.99 2454.73 1018.45 2453.35 1021.14 2452.99C1044.49 2449.86 1067.75 2446.04 1090.88 2441.53C1093.66 2440.98 1096.55 2441.57 1098.91 2443.16C1101.26 2444.74 1102.89 2447.2 1103.44 2449.99C1103.98 2452.78 1103.4 2455.67 1101.81 2458.02C1100.22 2460.38 1097.77 2462.01 1094.98 2462.55C1071.44 2467.14 1047.76 2471.03 1023.99 2474.22C1023.51 2474.29 1023.03 2474.32 1022.55 2474.32ZM584.357 2450.95C583.104 2450.95 581.862 2450.73 580.686 2450.3C557.108 2441.69 534.816 2431.26 514.427 2419.3C512.035 2417.83 510.313 2415.49 509.632 2412.77C508.951 2410.05 509.364 2407.17 510.783 2404.75C512.202 2402.33 514.514 2400.56 517.221 2399.83C519.929 2399.09 522.816 2399.45 525.262 2400.82C544.542 2412.13 565.66 2422.01 588.031 2430.18C589.352 2430.66 590.565 2431.4 591.601 2432.35C592.637 2433.3 593.475 2434.45 594.068 2435.72C594.661 2437 594.997 2438.38 595.057 2439.78C595.117 2441.19 594.9 2442.59 594.417 2443.91C593.664 2445.97 592.295 2447.76 590.495 2449.02C588.696 2450.27 586.553 2450.95 584.357 2450.95ZM1189.97 2439.42C1187.39 2439.42 1184.89 2438.49 1182.94 2436.8C1180.99 2435.1 1179.72 2432.76 1179.36 2430.2C1179 2427.64 1179.58 2425.04 1180.98 2422.88C1182.39 2420.71 1184.54 2419.13 1187.02 2418.42C1209.65 2411.91 1232.07 2404.69 1254.24 2396.77C1259.81 2394.77 1265.94 2397.67 1267.93 2403.24C1268.41 2404.57 1268.61 2405.97 1268.55 2407.38C1268.48 2408.78 1268.13 2410.16 1267.53 2411.43C1266.93 2412.7 1266.08 2413.84 1265.04 2414.79C1264 2415.73 1262.78 2416.46 1261.46 2416.93C1238.85 2425.02 1216 2432.38 1192.93 2439C1191.97 2439.28 1190.97 2439.42 1189.97 2439.42ZM1350.22 2379.71C1348.18 2379.71 1346.18 2379.13 1344.45 2378.03C1342.73 2376.93 1341.36 2375.36 1340.5 2373.5C1339.91 2372.23 1339.57 2370.85 1339.51 2369.44C1339.46 2368.04 1339.67 2366.64 1340.16 2365.31C1340.64 2363.99 1341.38 2362.78 1342.33 2361.75C1343.29 2360.71 1344.43 2359.87 1345.71 2359.28C1367.1 2349.36 1388.16 2338.75 1408.87 2327.47C1411.36 2326.12 1414.29 2325.82 1417 2326.62C1419.72 2327.43 1422 2329.28 1423.36 2331.77C1424.71 2334.26 1425.03 2337.18 1424.23 2339.9C1423.44 2342.62 1421.6 2344.91 1419.12 2346.28C1398 2357.78 1376.53 2368.6 1354.72 2378.72C1353.31 2379.37 1351.77 2379.71 1350.22 2379.71ZM442.241 2358.52C440.759 2358.53 439.293 2358.22 437.936 2357.63C436.579 2357.03 435.36 2356.16 434.358 2355.07C417.907 2337.19 403.234 2317.28 390.743 2295.9C389.311 2293.44 388.911 2290.52 389.632 2287.78C390.352 2285.03 392.135 2282.68 394.587 2281.25C397.039 2279.81 399.96 2279.41 402.707 2280.13C405.454 2280.86 407.802 2282.64 409.235 2285.09C420.951 2305.15 434.705 2323.81 450.116 2340.56C451.525 2342.09 452.457 2344 452.8 2346.05C453.142 2348.1 452.879 2350.21 452.044 2352.11C451.208 2354.02 449.836 2355.64 448.095 2356.78C446.354 2357.92 444.319 2358.52 442.239 2358.52L442.241 2358.52ZM1499.47 2295.97C1497.17 2295.97 1494.93 2295.23 1493.08 2293.86C1491.23 2292.49 1489.88 2290.56 1489.21 2288.36C1488.54 2286.16 1488.6 2283.8 1489.38 2281.63C1490.16 2279.47 1491.61 2277.61 1493.53 2276.34C1513.12 2263.29 1532.31 2249.65 1551.08 2235.44C1552.2 2234.59 1553.48 2233.97 1554.84 2233.61C1556.2 2233.26 1557.62 2233.18 1559.01 2233.37C1560.41 2233.56 1561.75 2234.03 1562.96 2234.74C1564.17 2235.45 1565.23 2236.39 1566.08 2237.51C1566.93 2238.64 1567.55 2239.91 1567.91 2241.27C1568.26 2242.64 1568.35 2244.05 1568.15 2245.45C1567.96 2246.84 1567.49 2248.18 1566.78 2249.4C1566.07 2250.61 1565.13 2251.67 1564.01 2252.52C1544.89 2266.99 1525.35 2280.88 1505.39 2294.17C1503.64 2295.34 1501.58 2295.97 1499.47 2295.97ZM361.873 2209.15C359.525 2209.15 357.242 2208.38 355.376 2206.95C353.51 2205.52 352.165 2203.52 351.548 2201.26C345.364 2178.56 340.781 2154.45 337.925 2129.59C337.601 2126.77 338.411 2123.93 340.177 2121.71C341.943 2119.48 344.52 2118.05 347.341 2117.73C353.212 2117.04 358.527 2121.27 359.202 2127.14C361.933 2150.93 366.311 2173.97 372.211 2195.62C372.644 2197.21 372.705 2198.88 372.389 2200.5C372.073 2202.11 371.388 2203.64 370.388 2204.95C369.388 2206.25 368.099 2207.31 366.623 2208.04C365.146 2208.77 363.521 2209.15 361.873 2209.15ZM1634.64 2191.21C1632.47 2191.21 1630.35 2190.55 1628.56 2189.32C1626.78 2188.09 1625.4 2186.34 1624.63 2184.32C1623.86 2182.29 1623.72 2180.07 1624.23 2177.96C1624.74 2175.86 1625.89 2173.95 1627.5 2172.51C1645.1 2156.79 1662.26 2140.59 1678.98 2123.94C1680.99 2121.95 1683.72 2120.84 1686.55 2120.85C1689.38 2120.86 1692.09 2122 1694.09 2124C1696.09 2126.01 1697.21 2128.73 1697.21 2131.56C1697.21 2134.4 1696.09 2137.11 1694.09 2139.12C1677.1 2156.04 1659.65 2172.5 1641.77 2188.48C1639.81 2190.24 1637.27 2191.21 1634.64 2191.2L1634.64 2191.21ZM1754.74 2069.27C1752.69 2069.27 1750.67 2068.67 1748.95 2067.56C1747.22 2066.45 1745.85 2064.86 1745 2062.99C1744.15 2061.12 1743.85 2059.04 1744.15 2057.01C1744.45 2054.97 1745.32 2053.07 1746.67 2051.52C1762.19 2033.7 1777.29 2015.53 1791.96 1997C1792.83 1995.89 1793.91 1994.96 1795.14 1994.27C1796.37 1993.58 1797.72 1993.14 1799.12 1992.97C1800.53 1992.8 1801.95 1992.91 1803.31 1993.3C1804.66 1993.68 1805.93 1994.33 1807.04 1995.21C1808.15 1996.09 1809.07 1997.17 1809.75 1998.41C1810.44 1999.64 1810.87 2001 1811.03 2002.41C1811.19 2003.81 1811.07 2005.23 1810.67 2006.59C1810.28 2007.94 1809.62 2009.21 1808.74 2010.31C1793.86 2029.09 1778.55 2047.52 1762.82 2065.59C1761.81 2066.75 1760.57 2067.67 1759.18 2068.31C1757.78 2068.94 1756.27 2069.27 1754.74 2069.27L1754.74 2069.27ZM346.026 2039.26C344.568 2039.26 343.125 2038.97 341.786 2038.39C340.446 2037.81 339.239 2036.97 338.237 2035.91C337.235 2034.85 336.46 2033.6 335.959 2032.23C335.458 2030.86 335.243 2029.4 335.325 2027.94C336.657 2004.4 339.296 1980.16 343.168 1955.88C343.615 1953.07 345.159 1950.56 347.458 1948.89C349.758 1947.23 352.625 1946.54 355.43 1946.99C358.234 1947.44 360.746 1948.98 362.413 1951.28C364.08 1953.58 364.765 1956.45 364.318 1959.25C360.56 1982.82 357.998 2006.33 356.708 2029.15C356.553 2031.88 355.361 2034.45 353.375 2036.33C351.389 2038.21 348.76 2039.26 346.026 2039.26ZM1859.96 1934.19C1857.77 1934.19 1855.63 1933.52 1853.84 1932.26C1852.68 1931.45 1851.7 1930.43 1850.94 1929.24C1850.19 1928.06 1849.67 1926.73 1849.43 1925.35C1849.18 1923.96 1849.21 1922.55 1849.51 1921.17C1849.82 1919.8 1850.39 1918.5 1851.19 1917.34C1864.73 1897.95 1877.89 1878.29 1890.65 1858.37C1891.41 1857.19 1892.4 1856.16 1893.55 1855.36C1894.7 1854.56 1896.01 1853.99 1897.38 1853.69C1898.75 1853.39 1900.17 1853.36 1901.56 1853.61C1902.94 1853.86 1904.26 1854.38 1905.45 1855.14C1906.63 1855.9 1907.65 1856.88 1908.46 1858.04C1909.26 1859.19 1909.83 1860.49 1910.13 1861.87C1910.43 1863.24 1910.46 1864.66 1910.21 1866.04C1909.96 1867.43 1909.44 1868.75 1908.68 1869.93C1895.76 1890.09 1882.45 1909.98 1868.75 1929.61C1867.76 1931.03 1866.45 1932.18 1864.91 1932.98C1863.38 1933.78 1861.68 1934.19 1859.96 1934.19L1859.96 1934.19ZM375.801 1870.82C374.137 1870.82 372.496 1870.44 371.007 1869.69C369.518 1868.95 368.224 1867.87 367.226 1866.53C366.228 1865.2 365.554 1863.66 365.258 1862.02C364.962 1860.38 365.052 1858.69 365.52 1857.1C372.301 1833.96 380.082 1811.12 388.843 1788.66C389.875 1786.01 391.916 1783.88 394.517 1782.74C395.805 1782.18 397.191 1781.87 398.597 1781.84C400.003 1781.82 401.401 1782.06 402.711 1782.58C404.021 1783.09 405.217 1783.85 406.232 1784.82C407.247 1785.8 408.06 1786.96 408.624 1788.25C409.189 1789.54 409.495 1790.92 409.524 1792.33C409.553 1793.74 409.305 1795.14 408.793 1796.45C400.259 1818.33 392.679 1840.58 386.073 1863.12C385.422 1865.34 384.07 1867.29 382.218 1868.68C380.367 1870.07 378.116 1870.82 375.801 1870.82V1870.82ZM1951.41 1789.37C1949.53 1789.37 1947.69 1788.88 1946.07 1787.94C1944.44 1787 1943.09 1785.66 1942.15 1784.03C1941.21 1782.41 1940.72 1780.57 1940.71 1778.69C1940.7 1776.82 1941.19 1774.97 1942.12 1773.35C1953.87 1752.78 1965.27 1732.03 1976.33 1711.09C1976.99 1709.85 1977.88 1708.74 1978.97 1707.85C1980.05 1706.95 1981.3 1706.27 1982.64 1705.86C1983.99 1705.44 1985.4 1705.3 1986.8 1705.43C1988.2 1705.56 1989.56 1705.97 1990.8 1706.62C1992.05 1707.28 1993.15 1708.18 1994.05 1709.26C1994.94 1710.34 1995.62 1711.59 1996.03 1712.93C1996.45 1714.28 1996.59 1715.69 1996.46 1717.09C1996.33 1718.49 1995.93 1719.85 1995.27 1721.1C1984.1 1742.25 1972.58 1763.21 1960.72 1783.98C1959.78 1785.62 1958.42 1786.98 1956.79 1787.93C1955.15 1788.88 1953.3 1789.37 1951.41 1789.37ZM441.006 1712.7C439.145 1712.7 437.316 1712.21 435.7 1711.29C434.085 1710.37 432.737 1709.04 431.792 1707.43C430.846 1705.83 430.334 1704.01 430.306 1702.15C430.279 1700.29 430.737 1698.45 431.635 1696.82C443.75 1674.82 456.701 1654.11 470.127 1635.25C471.774 1632.94 474.273 1631.38 477.074 1630.9C479.875 1630.43 482.748 1631.09 485.061 1632.74C487.375 1634.39 488.939 1636.89 489.41 1639.69C489.88 1642.49 489.219 1645.37 487.572 1647.68C474.621 1665.86 462.114 1685.87 450.395 1707.15C449.47 1708.84 448.11 1710.24 446.459 1711.21C444.807 1712.19 442.924 1712.7 441.006 1712.7ZM2030.55 1637.43C2028.96 1637.43 2027.39 1637.08 2025.96 1636.39C2024.69 1635.79 2023.55 1634.94 2022.61 1633.9C2021.67 1632.86 2020.94 1631.64 2020.47 1630.31C2019.99 1628.99 2019.79 1627.58 2019.86 1626.18C2019.93 1624.77 2020.28 1623.4 2020.88 1622.13C2031.04 1600.71 2040.89 1579.16 2050.45 1557.47C2051.62 1554.91 2053.75 1552.91 2056.38 1551.91C2059.01 1550.9 2061.93 1550.98 2064.51 1552.11C2067.08 1553.25 2069.11 1555.35 2070.15 1557.97C2071.18 1560.59 2071.15 1563.51 2070.05 1566.11C2060.41 1587.98 2050.47 1609.72 2040.23 1631.31C2039.36 1633.14 2037.99 1634.69 2036.27 1635.78C2034.56 1636.86 2032.57 1637.43 2030.55 1637.43ZM2098.85 1480.29C2097.1 1480.29 2095.38 1479.87 2093.83 1479.05C2092.29 1478.23 2090.97 1477.04 2089.99 1475.59C2089.01 1474.15 2088.39 1472.48 2088.2 1470.74C2088.01 1469.01 2088.25 1467.25 2088.9 1465.62C2097.66 1443.58 2106.16 1421.44 2114.39 1399.2C2114.88 1397.88 2115.63 1396.67 2116.58 1395.64C2117.54 1394.6 2118.69 1393.77 2119.97 1393.18C2121.24 1392.6 2122.62 1392.27 2124.03 1392.21C2125.44 1392.16 2126.84 1392.38 2128.16 1392.87C2129.47 1393.36 2130.68 1394.1 2131.72 1395.06C2132.75 1396.02 2133.58 1397.17 2134.17 1398.44C2134.76 1399.72 2135.08 1401.1 2135.14 1402.51C2135.19 1403.91 2134.97 1405.32 2134.48 1406.64C2126.19 1429.04 2117.63 1451.34 2108.8 1473.54C2108.01 1475.53 2106.64 1477.24 2104.86 1478.45C2103.09 1479.65 2100.99 1480.29 2098.85 1480.29ZM2157.67 1319.35C2156.51 1319.35 2155.36 1319.16 2154.26 1318.79C2152.93 1318.34 2151.7 1317.63 2150.64 1316.71C2149.58 1315.79 2148.71 1314.66 2148.08 1313.4C2147.45 1312.15 2147.08 1310.77 2146.99 1309.37C2146.89 1307.97 2147.07 1306.56 2147.52 1305.23C2154.42 1284.62 2161.13 1263.95 2167.65 1243.21C2168.5 1240.5 2170.39 1238.24 2172.91 1236.93C2175.43 1235.61 2178.37 1235.36 2181.08 1236.21C2183.79 1237.06 2186.05 1238.95 2187.36 1241.47C2188.67 1243.99 2188.93 1246.93 2188.08 1249.64C2181.53 1270.5 2174.77 1291.3 2167.82 1312.04C2167.11 1314.16 2165.75 1316.01 2163.92 1317.33C2162.1 1318.64 2159.92 1319.34 2157.67 1319.34L2157.67 1319.35Z" fill="#1E284C"/>
</g>
<g clip-path="url(#clip3_1_28)">
<path d="M1271.08 1436.43C1496.34 1436.43 1678.94 1253.82 1678.94 1028.57C1678.94 803.312 1496.34 620.706 1271.08 620.706C1045.83 620.706 863.221 803.312 863.221 1028.57C863.221 1253.82 1045.83 1436.43 1271.08 1436.43Z" fill="white"/>
<path d="M1535.76 1081.33C1573.91 1043.04 1579.99 978.484 1529.95 936.22C1476.45 891.132 1457.42 871.181 1440.15 814.023C1407.67 706.882 1319.55 719.249 1319.55 719.249C1266.76 672.344 1137.01 688.583 1110.81 810.892C1098.62 868.11 1088.5 952.175 1032.85 1016.49C977.073 1080.9 1051.92 1139.92 1051.92 1139.92C1014.25 1203.54 1147.7 1327.49 1334.07 1313.11C1483.36 1301.63 1528.57 1244.33 1544.38 1215.71C1578.67 1153.44 1561.32 1105.33 1535.77 1081.33L1535.76 1081.33Z" fill="#1E284C"/>
<path d="M1304.31 1324.97C1252.2 1324.97 1201.47 1314.63 1156.05 1294.59C1108.85 1273.77 1070.18 1243.19 1049.96 1210.69C1034.76 1186.27 1030.92 1162.43 1038.75 1142.54C1027.36 1131.68 1004.91 1106.46 1001.84 1074.07C999.669 1051.27 1007.38 1029.54 1024.75 1009.48C1071.34 955.629 1084.78 887.222 1095.57 832.256C1097.2 823.968 1098.74 816.139 1100.33 808.66C1112.62 751.271 1149.24 708.677 1200.79 691.785C1244.45 677.478 1292.87 684.139 1323.07 708.222C1331.72 707.799 1350.48 708.156 1371.6 716.495C1397.6 726.76 1432.38 751.474 1450.4 810.914C1466.94 865.68 1485.07 884.391 1536.85 928.029C1561.18 948.573 1575.27 976.148 1576.54 1005.68C1577.7 1032.72 1568.25 1059.71 1550.38 1081.18C1575.07 1110.24 1587.35 1159.88 1553.76 1220.87C1521.28 1279.69 1445.59 1315.27 1334.89 1323.79C1324.66 1324.57 1314.46 1324.97 1304.31 1324.97L1304.31 1324.97ZM1247.97 705.643C1234.62 705.643 1220.81 707.765 1207.46 712.14C1181.54 720.636 1135.86 745.053 1121.28 813.134C1119.72 820.433 1118.2 828.18 1116.59 836.383C1105.9 890.806 1091.27 965.342 1040.95 1023.49C1027.58 1038.93 1021.59 1055.23 1023.15 1071.93C1026.27 1105.49 1058.25 1131.26 1058.57 1131.52C1062.76 1134.85 1063.86 1140.77 1061.14 1145.38C1049.85 1164.43 1060.69 1187.39 1068.14 1199.38C1086.14 1228.3 1121.34 1255.86 1164.7 1274.99C1200.29 1290.7 1258.43 1308.2 1333.24 1302.43C1436.41 1294.49 1506.18 1262.71 1535 1210.53C1565.83 1154.54 1551.82 1111.11 1528.43 1089.13C1527.38 1088.15 1526.55 1086.97 1525.97 1085.66C1525.39 1084.35 1525.08 1082.94 1525.05 1081.5C1525.03 1080.07 1525.29 1078.65 1525.83 1077.32C1526.37 1075.99 1527.16 1074.78 1528.18 1073.77C1546.36 1055.51 1556.19 1031.03 1555.14 1006.6C1554.11 982.781 1543.01 961.273 1523.04 944.403C1468.69 898.598 1448.05 877.206 1429.89 817.12C1417.42 775.984 1395.16 748.829 1363.73 736.421C1340.91 727.41 1321.23 729.83 1321.03 729.856C1319.5 730.071 1317.93 729.95 1316.45 729.501C1314.96 729.052 1313.59 728.286 1312.43 727.255C1296.54 713.137 1273.05 705.643 1247.97 705.643Z" fill="#1E284C"/>
<path d="M911.44 1228.27C911.44 1228.27 1023.39 1128.64 1164.26 1121.79C1305.14 1114.93 1541.99 1131.82 1631.16 1218.47C1631.16 1218.47 1573.91 1318.07 1508.6 1357.3C1443.29 1396.53 1314.32 1444.9 1234.67 1436.13C1023.13 1412.82 911.44 1228.27 911.44 1228.27Z" fill="#6FA0FF"/>
<path d="M911.435 1238.97C908.896 1238.97 906.439 1238.07 904.506 1236.42C902.344 1234.59 900.999 1231.97 900.767 1229.14C900.535 1226.31 901.434 1223.51 903.267 1221.35C904.142 1220.31 925.201 1195.74 967.205 1169.67C1005.69 1145.79 1069.98 1116.03 1157.69 1109.87C1252.82 1103.19 1333.36 1105.68 1403.91 1117.48C1490.87 1132.02 1564.73 1160.53 1629.71 1204.64C1632.04 1206.24 1633.65 1208.7 1634.18 1211.49C1634.71 1214.27 1634.11 1217.15 1632.52 1219.5C1630.93 1221.84 1628.47 1223.46 1625.69 1224C1622.91 1224.53 1620.03 1223.95 1617.68 1222.37C1503.82 1145.08 1362.41 1116.97 1159.19 1131.24C1076.3 1137.06 1015.62 1164.97 979.312 1187.37C939.87 1211.7 919.797 1234.98 919.6 1235.21C918.593 1236.39 917.342 1237.34 915.933 1237.99C914.523 1238.64 912.988 1238.97 911.435 1238.97Z" fill="#1E284C"/>
<path d="M1355.37 1103.98C1345.24 1089.94 1335.29 1069.83 1335.68 1059.27C1334.83 1076.21 1339.81 954.892 1339.81 954.892L1200.68 949.313C1200.68 949.313 1197.36 1034.25 1196.13 1062.58C1195.12 1087.37 1170.08 1117.32 1170.08 1117.32C1145.67 1161.05 1278.2 1253.89 1278.2 1253.89C1278.2 1253.89 1382.32 1141.28 1355.37 1103.99L1355.37 1103.98Z" fill="white"/>
<path d="M1278.19 1264.6C1276 1264.6 1273.85 1263.92 1272.05 1262.66C1270.67 1261.69 1237.91 1238.66 1207.6 1209.75C1163.07 1167.31 1147.74 1135.36 1160.73 1112.09C1161.06 1111.51 1161.44 1110.96 1161.87 1110.44C1168.18 1102.87 1184.73 1079.41 1185.43 1062.14C1186.65 1034.13 1189.95 949.744 1189.98 948.895C1190.04 947.488 1190.37 946.107 1190.96 944.829C1191.55 943.551 1192.38 942.402 1193.42 941.447C1194.45 940.492 1195.66 939.75 1196.98 939.263C1198.3 938.777 1199.71 938.555 1201.11 938.611L1340.24 944.191C1341.64 944.247 1343.02 944.581 1344.3 945.171C1345.58 945.762 1346.73 946.598 1347.68 947.633C1348.63 948.667 1349.37 949.88 1349.86 951.201C1350.35 952.521 1350.57 953.925 1350.51 955.331C1348.99 992.248 1346.8 1046.42 1346.36 1058.55C1346.39 1058.92 1346.39 1059.29 1346.38 1059.67C1346.15 1065.76 1353.35 1082.88 1364.05 1097.71C1378.37 1117.52 1369.1 1150.66 1335.7 1199.01C1312.87 1232.07 1287.15 1259.99 1286.06 1261.16C1285.06 1262.25 1283.84 1263.11 1282.49 1263.7C1281.13 1264.3 1279.67 1264.6 1278.19 1264.6H1278.19ZM1179.06 1123.26C1167.95 1146.58 1227.95 1203.99 1276.62 1239.58C1285.62 1229.3 1302.81 1208.97 1318.19 1186.67C1356.13 1131.68 1349.6 1114.28 1346.69 1110.26L1346.68 1110.25C1339.47 1100.24 1326.41 1078.3 1325.07 1062.4C1324.92 1061.39 1324.87 1060.38 1324.91 1059.36C1324.93 1058.57 1324.97 1057.41 1325.03 1055.94C1325.13 1053.04 1325.29 1048.89 1325.49 1043.91C1325.88 1033.97 1326.41 1020.71 1326.95 1007.46C1327.6 991.391 1328.25 975.326 1328.67 965.163L1210.97 960.444C1210.03 984.222 1207.79 1041.03 1206.84 1063.04C1205.78 1088.93 1184.06 1117.1 1179.06 1123.26V1123.26Z" fill="#1E284C"/>
<path d="M1415.01 854.09C1397.98 770.736 1336.61 709.743 1265.32 711.619C1194.04 713.497 1136.03 777.628 1123.4 861.73C1098 862.666 1078.02 883.84 1078.7 909.32C1079.37 934.917 1100.75 955.167 1126.35 954.497L1128.16 954.37C1148.19 1031.91 1207.16 1087.35 1275.23 1085.54C1343.29 1083.73 1399.16 1025.17 1415.12 946.732C1415.72 946.69 1416.31 946.765 1416.91 946.722C1442.51 946.053 1462.76 924.673 1462.09 899.076C1461.5 873.729 1440.46 853.64 1415.01 854.092L1415.01 854.09Z" fill="white"/>
<path d="M1271.92 1096.29C1237.38 1096.29 1204.46 1082.98 1176.49 1057.65C1150.79 1034.38 1130.92 1001.71 1119.99 964.996C1091.51 962.448 1068.76 938.847 1067.99 909.601C1067.24 881.464 1087.3 857.299 1114.16 852.047C1121.63 812.027 1139.35 775.522 1164.53 748.534C1192.28 718.801 1227.97 701.89 1265.04 700.913C1302.11 699.93 1338.66 714.948 1367.95 743.183C1394.53 768.814 1414.16 804.344 1423.71 843.917C1450.86 847.691 1472.14 870.707 1472.79 898.829C1473.56 928.052 1452.11 952.818 1423.83 956.869C1414.84 994.116 1396.72 1027.8 1372.31 1052.41C1344.82 1080.14 1311.34 1095.29 1275.51 1096.25C1274.31 1096.28 1273.11 1096.29 1271.92 1096.29H1271.92ZM1128.16 943.658C1130.53 943.659 1132.84 944.448 1134.72 945.902C1136.59 947.356 1137.93 949.392 1138.52 951.689C1157.68 1025.82 1213.78 1076.45 1274.94 1074.83C1336.02 1073.2 1389.35 1019.65 1404.62 944.595C1405.09 942.301 1406.29 940.224 1408.05 938.68C1409.81 937.137 1412.03 936.211 1414.36 936.046C1415.01 935.999 1415.66 936 1416.3 936.018L1416.41 936.02L1416.63 936.012C1436.3 935.496 1451.89 919.052 1451.38 899.353C1450.93 879.938 1434.69 864.461 1415.2 864.796C1410.01 864.912 1405.55 861.286 1404.51 856.231C1388.32 776.945 1329.93 720.639 1265.6 722.323C1201.36 724.015 1146 783.312 1133.99 863.318C1133.61 865.788 1132.39 868.05 1130.53 869.714C1128.67 871.378 1126.28 872.339 1123.79 872.431C1104.31 873.148 1088.89 889.566 1089.41 909.028C1089.92 928.639 1106.18 944.169 1125.85 943.792L1127.4 943.682C1127.65 943.664 1127.91 943.655 1128.16 943.655L1128.16 943.658Z" fill="#1E284C"/>
<path d="M1123.4 861.73C1123.4 861.73 1286.38 802.641 1294.89 720.038C1297.55 694.508 1124.82 686.909 1123.4 861.73Z" fill="#1E284C"/>
<path d="M1122.98 871.571C1121.14 871.467 1119.36 870.87 1117.83 869.842C1115.21 867.958 1113.68 865.021 1113.73 861.809C1114.01 824.055 1122.09 791.586 1137.71 765.325C1150.93 743.048 1169.36 725.61 1192.23 713.624C1231.46 692.996 1277.53 692.552 1296.08 705.05C1304.42 710.762 1305.09 717.643 1304.74 721.294C1295.71 808.956 1133.72 868.649 1126.85 871.111C1125.5 871.416 1124.28 871.618 1122.98 871.571ZM1263.89 716.323C1251.45 715.691 1234.79 717.382 1216.65 724.011C1187.51 734.72 1139.46 764.714 1133.71 847.191C1148.95 840.789 1175 829.09 1201.21 813.358C1236.71 792.016 1279.82 758.769 1285 720.923C1282.16 718.892 1274.55 716.849 1263.89 716.323Z" fill="#1E284C"/>
<path d="M1277.93 757.692C1277.93 757.692 1373.04 770.893 1415.01 854.089C1415.01 854.089 1417.7 707.682 1294.87 720.155" fill="#1E284C"/>
<path d="M1414.49 863.798C1411.05 863.6 1407.85 861.64 1406.23 858.453C1367.23 781 1277.39 767.517 1276.57 767.413C1271.19 766.607 1267.52 761.729 1268.21 756.332C1269.01 750.951 1273.89 747.281 1279.29 747.97C1280.34 748.104 1304.93 751.597 1334.95 765.796C1361.26 778.212 1383.56 795.002 1400.88 815.331C1396.35 793.772 1386.91 767.773 1367.71 750.066C1349.78 733.595 1325.61 726.817 1295.9 729.823C1290.59 730.339 1285.72 726.497 1285.22 721.069C1284.72 715.641 1288.54 710.882 1293.97 710.383C1329.48 706.804 1358.79 715.309 1380.98 735.782C1425.69 776.89 1424.81 851.047 1424.76 854.259C1424.66 858.776 1421.54 862.67 1417.12 863.657C1416.27 863.787 1415.42 863.917 1414.48 863.797L1414.49 863.798Z" fill="#1E284C"/>
<path d="M1267.26 1447.14C1265.81 1447.14 1264.37 1447.14 1262.92 1447.12C1151.12 1445.99 1046.45 1401.4 968.196 1321.54C889.94 1241.69 847.465 1136.14 848.593 1024.35C849.721 912.547 894.32 807.88 974.171 729.624C1054.02 651.369 1159.56 608.878 1271.37 610.021C1383.17 611.151 1487.83 655.749 1566.09 735.6C1644.34 815.452 1686.82 920.997 1685.69 1032.8C1684.56 1144.59 1639.96 1249.26 1560.11 1327.52C1481.3 1404.75 1377.44 1447.14 1267.26 1447.14L1267.26 1447.14ZM1267.08 631.421C1049.94 631.421 872.21 806.935 870.014 1024.56C868.943 1130.64 909.245 1230.78 983.496 1306.55C1057.75 1382.32 1157.06 1424.63 1263.13 1425.7C1369.19 1426.73 1469.36 1386.47 1545.12 1312.22C1620.89 1237.97 1663.2 1138.66 1664.27 1032.58C1665.34 926.502 1625.04 826.358 1550.79 750.593C1476.54 674.828 1377.23 632.512 1271.15 631.441C1269.8 631.427 1268.43 631.421 1267.08 631.421H1267.08Z" fill="#1E284C"/>
</g>
<g clip-path="url(#clip4_1_28)">
<path d="M2072.86 1733.56L2072.86 1733.56L2072.86 1733.56C1936.39 1842.52 1885.39 1897.28 1632.13 1935.25L1633.87 2117.22C1646.44 2318.11 1693.69 2633.5 2072.86 2792.15C2452.02 2633.5 2499.27 2318.11 2511.84 2117.22L2513.59 1935.25C2260.32 1897.28 2209.32 1842.52 2072.86 1733.56Z" fill="white"/>
<path d="M2072.86 2802.86C2071.44 2802.86 2070.04 2802.58 2068.73 2802.03C1978.58 2764.31 1901.19 2715.1 1838.71 2655.78C1784.29 2604.11 1739.73 2543.37 1706.29 2475.24C1644.59 2349.59 1629.47 2218.26 1623.19 2117.89C1623.18 2117.7 1623.18 2117.51 1623.17 2117.32L1621.43 1935.35C1621.4 1932.77 1622.31 1930.27 1623.99 1928.3C1625.66 1926.34 1627.99 1925.05 1630.54 1924.66C1861.76 1890.01 1920.16 1842.9 2036.49 1749.06C2046.37 1741.08 2056.26 1733.12 2066.18 1725.2C2068.07 1723.68 2070.43 1722.86 2072.86 1722.86C2075.28 1722.86 2077.64 1723.68 2079.53 1725.2C2089.88 1733.46 2099.73 1741.4 2109.22 1749.06C2225.56 1842.9 2283.95 1890.01 2515.17 1924.66C2517.72 1925.05 2520.05 1926.34 2521.73 1928.3C2523.4 1930.27 2524.31 1932.77 2524.28 1935.35L2522.54 2117.32C2522.54 2117.51 2522.53 2117.7 2522.52 2117.89C2516.24 2218.26 2501.12 2349.59 2439.43 2475.24C2405.98 2543.37 2361.43 2604.11 2307.01 2655.77C2244.53 2715.1 2167.14 2764.31 2076.99 2802.03C2075.68 2802.57 2074.28 2802.86 2072.86 2802.86ZM1644.57 2116.84C1659.05 2347.65 1720.99 2631.3 2072.86 2780.54C2424.72 2631.3 2486.67 2347.65 2501.14 2116.84L2502.8 1944.43C2273.36 1908.96 2209.86 1857.73 2095.79 1765.72C2088.15 1759.55 2080.51 1753.4 2072.86 1747.26C2064.95 1753.6 2057.33 1759.75 2049.93 1765.72C1935.86 1857.73 1872.36 1908.96 1642.92 1944.43L1644.57 2116.84Z" fill="#1E284C"/>
<path d="M2072.86 1843.87L2072.86 1843.87L2072.86 1843.87C1964.84 1930.13 1924.46 1973.48 1723.98 2003.53L1725.37 2147.57C1735.31 2306.6 1772.72 2556.25 2072.86 2681.84C2373 2556.25 2410.4 2306.6 2420.35 2147.57L2421.73 2003.53C2221.25 1973.48 2180.88 1930.13 2072.86 1843.87Z" fill="#BCBCBC"/>
<path d="M2072.86 2692.54C2071.44 2692.54 2070.04 2692.26 2068.73 2691.71C1997.12 2661.75 1935.63 2622.65 1885.97 2575.5C1842.7 2534.42 1807.28 2486.13 1780.68 2431.96C1731.67 2332.14 1719.67 2227.91 1714.69 2148.24C1714.67 2148.06 1714.67 2147.87 1714.67 2147.68L1713.28 2003.63C1713.26 2001.05 1714.17 1998.55 1715.84 1996.58C1717.52 1994.62 1719.85 1993.33 1722.4 1992.95C1904.83 1965.6 1950.9 1928.44 2042.67 1854.41C2050.49 1848.09 2058.33 1841.79 2066.18 1835.51C2066.84 1834.98 2067.57 1834.53 2068.34 1834.17H2068.35C2068.35 1834.17 2068.36 1834.16 2068.37 1834.16L2068.38 1834.16L2068.4 1834.15C2068.41 1834.14 2068.42 1834.14 2068.43 1834.13H2068.44L2068.46 1834.12L2068.47 1834.12L2068.49 1834.11L2068.5 1834.11L2068.52 1834.1L2068.53 1834.09L2068.54 1834.09L2068.56 1834.08L2068.57 1834.08L2068.59 1834.07L2068.6 1834.06L2068.62 1834.06L2068.63 1834.05C2068.64 1834.05 2068.65 1834.04 2068.66 1834.04L2068.67 1834.03L2068.68 1834.03L2068.7 1834.02L2068.71 1834.01L2068.73 1834.01L2068.74 1834L2068.76 1834L2068.77 1833.99L2068.79 1833.98L2068.8 1833.98L2068.82 1833.97H2068.82L2068.85 1833.96H2068.86L2068.88 1833.95H2068.89L2068.91 1833.94H2068.92C2070.17 1833.44 2071.51 1833.18 2072.86 1833.18H2072.88C2075.3 1833.19 2077.65 1834.01 2079.54 1835.52C2087.73 1842.06 2095.53 1848.36 2103.04 1854.42C2194.82 1928.45 2240.88 1965.61 2423.32 1992.96C2425.87 1993.34 2428.2 1994.63 2429.87 1996.59C2431.55 1998.56 2432.45 2001.06 2432.43 2003.64L2431.05 2147.69C2431.05 2147.88 2431.04 2148.07 2431.03 2148.25C2426.05 2227.92 2414.04 2332.15 2365.03 2431.97C2338.44 2486.14 2303.01 2534.43 2259.74 2575.51C2210.09 2622.66 2148.6 2661.76 2076.99 2691.72C2075.68 2692.27 2074.28 2692.55 2072.86 2692.55V2692.54ZM1736.06 2147.19C1747.47 2329.06 1796.23 2552.47 2072.86 2670.23C2349.48 2552.47 2398.24 2329.06 2409.65 2147.19L2410.94 2012.7C2230.28 1984.55 2179.89 1943.89 2089.61 1871.06C2084.19 1866.69 2078.62 1862.2 2072.86 1857.58C2067.1 1862.2 2061.53 1866.69 2056.11 1871.06C1965.82 1943.89 1915.44 1984.55 1734.77 2012.7L1736.06 2147.19Z" fill="#BCBCBC"/>
<path d="M2072.86 2300.18C2130.66 2300.18 2177.51 2253.35 2177.51 2195.59C2177.51 2137.82 2130.66 2090.99 2072.86 2090.99C2015.06 2090.99 1968.2 2137.82 1968.2 2195.59C1968.2 2253.35 2015.06 2300.18 2072.86 2300.18Z" fill="#1E284C"/>
<path d="M2072.86 2310.88C2009.25 2310.88 1957.5 2259.16 1957.5 2195.59C1957.5 2132.01 2009.25 2080.29 2072.86 2080.29C2136.46 2080.29 2188.21 2132.01 2188.21 2195.59C2188.21 2259.16 2136.46 2310.88 2072.86 2310.88ZM2072.86 2101.69C2021.05 2101.69 1978.9 2143.81 1978.9 2195.59C1978.9 2247.36 2021.05 2289.48 2072.86 2289.48C2124.66 2289.48 2166.81 2247.36 2166.81 2195.59C2166.81 2143.81 2124.66 2101.69 2072.86 2101.69Z" fill="#1E284C"/>
<path d="M2114.62 2272.4H2031.09L2043.8 2434.72H2101.92L2114.62 2272.4Z" fill="#1E284C"/>
<path d="M2101.92 2445.42H2043.8C2041.11 2445.42 2038.51 2444.41 2036.53 2442.58C2034.56 2440.75 2033.34 2438.24 2033.13 2435.56L2020.43 2273.24C2020.31 2271.77 2020.5 2270.29 2020.98 2268.9C2021.47 2267.5 2022.23 2266.22 2023.24 2265.14C2024.24 2264.06 2025.45 2263.19 2026.81 2262.6C2028.16 2262.01 2029.62 2261.7 2031.09 2261.7H2114.62C2116.1 2261.7 2117.56 2262.01 2118.91 2262.6C2120.26 2263.19 2121.48 2264.06 2122.48 2265.14C2123.48 2266.22 2124.25 2267.5 2124.73 2268.9C2125.22 2270.29 2125.41 2271.77 2125.29 2273.24L2112.58 2435.56C2112.37 2438.24 2111.16 2440.75 2109.18 2442.58C2107.2 2444.41 2104.61 2445.42 2101.92 2445.42ZM2053.69 2424.02H2092.02L2103.05 2283.11H2042.66L2053.69 2424.02Z" fill="#1E284C"/>
</g>
<g clip-path="url(#clip5_1_28)">
<path d="M2324.24 1310.74L2350.73 860.687L2026.41 1174.28L2207.74 1171.96L2324.24 1310.74Z" fill="#6FA0FF"/>
<path d="M2324.24 1321.43C2322.68 1321.43 2321.13 1321.09 2319.72 1320.43C2318.3 1319.77 2317.05 1318.8 2316.04 1317.61L2202.8 1182.71L2026.55 1184.97H2026.41C2024.28 1184.97 2022.2 1184.33 2020.43 1183.14C2018.67 1181.95 2017.3 1180.26 2016.5 1178.29C2015.7 1176.32 2015.51 1174.15 2015.95 1172.07C2016.39 1169.99 2017.44 1168.08 2018.97 1166.6L2343.29 853.009C2344.83 851.513 2346.8 850.518 2348.92 850.155C2351.05 849.793 2353.23 850.079 2355.19 850.976C2357.15 851.874 2358.79 853.341 2359.9 855.186C2361.01 857.03 2361.54 859.167 2361.41 861.315L2334.92 1311.37C2334.76 1314.09 2333.57 1316.65 2331.58 1318.52C2329.6 1320.39 2326.97 1321.43 2324.24 1321.43ZM2207.74 1161.28C2209.3 1161.28 2210.84 1161.62 2212.26 1162.28C2213.68 1162.94 2214.93 1163.9 2215.93 1165.1L2315.14 1283.27L2338.43 887.449L2053.2 1163.25L2207.6 1161.28H2207.74Z" fill="#1E284C"/>
<path d="M2207.73 1182.65C2205.94 1182.65 2204.17 1182.2 2202.6 1181.34C2201.02 1180.48 2199.69 1179.24 2198.73 1177.73C2197.76 1176.22 2197.19 1174.5 2197.06 1172.71C2196.94 1170.92 2197.26 1169.14 2198.01 1167.51L2256.42 1040.35C2257.62 1037.8 2259.78 1035.82 2262.43 1034.85C2265.08 1033.88 2268.01 1034 2270.57 1035.17C2273.14 1036.35 2275.13 1038.49 2276.13 1041.13C2277.12 1043.76 2277.03 1046.69 2275.87 1049.26L2217.46 1176.42C2216.61 1178.28 2215.24 1179.86 2213.51 1180.96C2211.79 1182.07 2209.78 1182.65 2207.73 1182.65Z" fill="#1E284C"/>
</g>
<defs>
<clipPath id="clip0_1_28">
<rect width="1428.57" height="2611.43" fill="white" transform="translate(497.143 191.429)"/>
</clipPath>
<clipPath id="clip1_1_28">
<rect width="1111.43" height="965.714" fill="white" transform="translate(717.143 1602.86)"/>
</clipPath>
<clipPath id="clip2_1_28">
<rect width="1854.29" height="1250" fill="white" transform="translate(334.286 1235.71)"/>
</clipPath>
<clipPath id="clip3_1_28">
<rect width="837.143" height="837.143" fill="white" transform="translate(848.571 610)"/>
</clipPath>
<clipPath id="clip4_1_28">
<rect width="902.857" height="1080" fill="white" transform="translate(1621.43 1722.86)"/>
</clipPath>
<clipPath id="clip5_1_28">
<rect width="345.714" height="471.429" fill="white" transform="translate(2015.71 850)"/>
</clipPath>
</defs>
</svg>
