<svg xmlns="http://www.w3.org/2000/svg"  viewBox="0 0 30 30" width="30px" height="30px"><path d="M 15 3 C 8.3844276 3 3 8.3844276 3 15 C 3 21.615572 8.3844276 27 15 27 C 21.615572 27 27 21.615572 27 15 C 27 8.3844276 21.615572 3 15 3 z M 15 5 C 20.534692 5 25 9.4653079 25 15 C 25 20.534692 20.534692 25 15 25 C 9.4653079 25 5 20.534692 5 15 C 5 9.4653079 9.4653079 5 15 5 z M 9 10 A 1.0001 1.0001 0 1 0 9 12 L 12 12 A 1.0001 1.0001 0 1 0 12 10 L 9 10 z M 18 10 A 1.0001 1.0001 0 1 0 18 12 L 21 12 A 1.0001 1.0001 0 1 0 21 10 L 18 10 z M 11 14 C 10.448 14 10 14.448 10 15 L 10 16.783203 C 10 19.394203 11.908812 21.728562 14.507812 21.976562 C 17.489812 22.261563 20 19.923 20 17 L 20 15 C 20 14.448 19.552 14 19 14 L 11 14 z"/></svg>