<svg xmlns="http://www.w3.org/2000/svg"  viewBox="0 0 30 30" width="30px" height="30px"><path d="M 24.5 3 A 2.5 2.5 0 0 0 22 5.5 A 2.5 2.5 0 0 0 24.5 8 A 2.5 2.5 0 0 0 27 5.5 A 2.5 2.5 0 0 0 24.5 3 z M 15.947266 4.0019531 A 1.0001 1.0001 0 0 0 15.804688 4.0195312 L 10.804688 5.0195312 A 1.0001 1.0001 0 0 0 11.128906 6.9921875 L 15.939453 6.4140625 L 17.419922 8 L 13.125 11.414062 A 2.5 2.5 0 0 0 12 13.5 A 2.5 2.5 0 0 0 12.609375 15.132812 L 15.371094 18.585938 L 10 19 A 1.0001 1.0001 0 0 0 9.9960938 19 L 9.9726562 19.001953 A 1.0001 1.0001 0 1 0 10 21 L 17.439453 21 C 18.542467 21 19.28687 19.776697 18.84375 18.794922 L 18.855469 18.783203 L 17 14.662109 L 20.123047 12.191406 L 21.037109 14.269531 A 1.0001 1.0001 0 0 0 21.150391 14.527344 L 21.15625 14.539062 L 21.158203 14.539062 A 1.0001 1.0001 0 0 0 22 15 L 26 15 A 1.0001 1.0001 0 1 0 26.007812 13 L 22.769531 12.736328 L 21.966797 9.1054688 A 2.5 2.5 0 0 0 21.900391 8.8046875 L 21.898438 8.8027344 A 2.5 2.5 0 0 0 20.787109 7.3613281 L 16.603516 4.2011719 A 1.0001 1.0001 0 0 0 15.947266 4.0019531 z M 6 9 L 5 10 L 10.685547 10 L 11.945312 9 L 6 9 z M 3 12 L 3 13 L 9.0488281 13 C 9.0888281 12.658 9.1613438 12.323 9.2773438 12 L 3 12 z M 4 15 L 5 16 L 9.7871094 16 C 9.5741094 15.685 9.3945781 15.353 9.2675781 15 L 4 15 z M 14 23 L 12.205078 25.392578 A 1 1 0 0 0 12 26 A 1 1 0 0 0 13 27 A 1 1 0 0 0 13.763672 26.646484 L 13.765625 26.644531 A 1 1 0 0 1 13.767578 26.642578 L 16.900391 23 L 14 23 z"/></svg>