<?xml version="1.0"?><svg xmlns="http://www.w3.org/2000/svg"  viewBox="0 0 30 30" width="30px" height="30px">    <path d="M 1.7070312 0.29296875 L 0.29296875 1.7070312 L 28.292969 29.707031 L 29.707031 28.292969 L 22.736328 21.322266 C 24.147289 19.598584 25 17.40095 25 15 C 25 13.367192 24.600191 11.830059 23.90625 10.46875 L 27.707031 9.2929688 C 28.098031 8.9029687 28.098031 8.2699062 27.707031 7.8789062 L 26.414062 6.5859375 L 26.707031 6.2929688 C 27.098031 5.9029687 27.098031 5.2699063 26.707031 4.8789062 L 25.121094 3.2929688 C 24.731094 2.9019687 24.098031 2.9019687 23.707031 3.2929688 L 23.414062 3.5859375 L 22.121094 2.2929688 C 21.731094 1.9019688 21.098031 1.9019687 20.707031 2.2929688 L 19.53125 6.09375 C 18.169941 5.399809 16.632808 5 15 5 C 12.59905 5 10.401416 5.852711 8.6777344 7.2636719 L 1.7070312 0.29296875 z M 6.1503906 10.351562 C 5.4193906 11.740562 5 13.321 5 15 C 5 16.632808 5.399809 18.169941 6.09375 19.53125 L 2.2929688 20.707031 C 1.9019687 21.097031 1.9019687 21.730094 2.2929688 22.121094 L 3.5859375 23.414062 L 3.2929688 23.707031 C 2.9019687 24.097031 2.9019687 24.730094 3.2929688 25.121094 L 4.8789062 26.707031 C 5.2689063 27.098031 5.9019687 27.098031 6.2929688 26.707031 L 6.5859375 26.414062 L 7.8789062 27.707031 C 8.2689063 28.098031 8.9019687 28.098031 9.2929688 27.707031 L 10.46875 23.90625 C 11.830059 24.600191 13.367192 25 15 25 C 16.679 25 18.259438 24.580609 19.648438 23.849609 L 6.1503906 10.351562 z"/></svg>