<svg xmlns="http://www.w3.org/2000/svg"  viewBox="0 0 30 30" width="30px" height="30px"><path d="M 7.984375 1.9863281 A 1.0001 1.0001 0 0 0 7 3 L 7 4 L 5 4 L 5 26 C 5 27.105 5.895 28 7 28 L 23 28 C 24.105 28 25 27.105 25 26 L 25 4 L 23 4 L 23 5 C 23 5.552 22.552 6 22 6 C 21.448 6 21 5.552 21 5 L 21 4 L 21 3 A 1.0001 1.0001 0 0 0 19.984375 1.9863281 A 1.0001 1.0001 0 0 0 19 3 L 19 4 L 19 5 C 19 5.552 18.552 6 18 6 C 17.448 6 17 5.552 17 5 L 17 4 L 17 3 A 1.0001 1.0001 0 0 0 15.984375 1.9863281 A 1.0001 1.0001 0 0 0 15 3 L 15 4 L 15 5 C 15 5.552 14.552 6 14 6 C 13.448 6 13 5.552 13 5 L 13 4 L 13 3 A 1.0001 1.0001 0 0 0 11.984375 1.9863281 A 1.0001 1.0001 0 0 0 11 3 L 11 4 L 11 5 C 11 5.552 10.552 6 10 6 C 9.448 6 9 5.552 9 5 L 9 4 L 9 3 A 1.0001 1.0001 0 0 0 7.984375 1.9863281 z M 10 10 L 20 10 C 20.552 10 21 10.448 21 11 C 21 11.552 20.552 12 20 12 L 10 12 C 9.448 12 9 11.552 9 11 C 9 10.448 9.448 10 10 10 z M 10 14 L 17 14 C 17.552 14 18 14.448 18 15 C 18 15.552 17.552 16 17 16 L 10 16 C 9.448 16 9 15.552 9 15 C 9 14.448 9.448 14 10 14 z M 10 18 L 20 18 C 20.552 18 21 18.448 21 19 C 21 19.552 20.552 20 20 20 L 10 20 C 9.448 20 9 19.552 9 19 C 9 18.448 9.448 18 10 18 z M 10 22 L 17 22 C 17.552 22 18 22.448 18 23 C 18 23.552 17.552 24 17 24 L 10 24 C 9.448 24 9 23.552 9 23 C 9 22.448 9.448 22 10 22 z"/></svg>