<svg xmlns="http://www.w3.org/2000/svg"  viewBox="0 0 30 30" width="30px" height="30px"><path d="M 14 2 L 14 5 L 12.759766 5 C 11.506766 5 10.281406 5.5569375 9.5664062 6.5859375 C 9.0742554 7.294547 8.7366677 8.1142901 8.5878906 9 L 8 9 A 1.0001 1.0001 0 1 0 8 11 L 22 11 A 1.0001 1.0001 0 1 0 22 9 L 21.412109 9 C 21.263332 8.1142901 20.925745 7.294547 20.433594 6.5859375 C 19.718594 5.5569375 18.493234 5 17.240234 5 L 16 5 L 16 2 L 14 2 z M 11 13 A 1 1 0 0 0 10 14 A 1 1 0 0 0 11 15 A 1 1 0 0 0 12 14 A 1 1 0 0 0 11 13 z M 15 13 A 1 1 0 0 0 14 14 A 1 1 0 0 0 15 15 A 1 1 0 0 0 16 14 A 1 1 0 0 0 15 13 z M 19 13 A 1 1 0 0 0 18 14 A 1 1 0 0 0 19 15 A 1 1 0 0 0 20 14 A 1 1 0 0 0 19 13 z M 9 17 A 1 1 0 0 0 8 18 A 1 1 0 0 0 9 19 A 1 1 0 0 0 10 18 A 1 1 0 0 0 9 17 z M 13 17 A 1 1 0 0 0 12 18 A 1 1 0 0 0 13 19 A 1 1 0 0 0 14 18 A 1 1 0 0 0 13 17 z M 17 17 A 1 1 0 0 0 16 18 A 1 1 0 0 0 17 19 A 1 1 0 0 0 18 18 A 1 1 0 0 0 17 17 z M 21 17 A 1 1 0 0 0 20 18 A 1 1 0 0 0 21 19 A 1 1 0 0 0 22 18 A 1 1 0 0 0 21 17 z M 7 21 A 1 1 0 0 0 6 22 A 1 1 0 0 0 7 23 A 1 1 0 0 0 8 22 A 1 1 0 0 0 7 21 z M 11 21 A 1 1 0 0 0 10 22 A 1 1 0 0 0 11 23 A 1 1 0 0 0 12 22 A 1 1 0 0 0 11 21 z M 15 21 A 1 1 0 0 0 14 22 A 1 1 0 0 0 15 23 A 1 1 0 0 0 16 22 A 1 1 0 0 0 15 21 z M 19 21 A 1 1 0 0 0 18 22 A 1 1 0 0 0 19 23 A 1 1 0 0 0 20 22 A 1 1 0 0 0 19 21 z M 23 21 A 1 1 0 0 0 22 22 A 1 1 0 0 0 23 23 A 1 1 0 0 0 24 22 A 1 1 0 0 0 23 21 z M 5 25 A 1 1 0 0 0 4 26 A 1 1 0 0 0 5 27 A 1 1 0 0 0 6 26 A 1 1 0 0 0 5 25 z M 9 25 A 1 1 0 0 0 8 26 A 1 1 0 0 0 9 27 A 1 1 0 0 0 10 26 A 1 1 0 0 0 9 25 z M 13 25 A 1 1 0 0 0 12 26 A 1 1 0 0 0 13 27 A 1 1 0 0 0 14 26 A 1 1 0 0 0 13 25 z M 17 25 A 1 1 0 0 0 16 26 A 1 1 0 0 0 17 27 A 1 1 0 0 0 18 26 A 1 1 0 0 0 17 25 z M 21 25 A 1 1 0 0 0 20 26 A 1 1 0 0 0 21 27 A 1 1 0 0 0 22 26 A 1 1 0 0 0 21 25 z M 25 25 A 1 1 0 0 0 24 26 A 1 1 0 0 0 25 27 A 1 1 0 0 0 26 26 A 1 1 0 0 0 25 25 z"/></svg>