<svg width="800" height="800" viewBox="0 0 800 800" fill="none" xmlns="http://www.w3.org/2000/svg">
<rect width="800" height="800" />
<path d="M727.94 420.877C730.194 396.926 730.485 375.614 729.971 358.339C729.139 330.438 707.067 308.596 679.551 303.909V303.909C662.442 300.995 646.008 305.965 632.568 316.946L430.717 481.859C416.258 493.672 395.551 493.911 380.823 482.435L167.372 316.107C153.938 305.639 138.007 300.924 121.218 303.778V303.778C93.3624 308.515 70.8214 330.659 70.0129 358.903C69.5212 376.077 69.8306 397.186 72.0604 420.877L79.7 502.053C92.2884 635.807 98.5827 652.683 138.003 693.007C177.424 733.333 236.506 733.333 354.67 733.333H445.33C563.493 733.333 622.577 733.333 661.997 693.007C692.46 661.843 703.14 654.823 712.233 573.333" stroke="#1C274C" stroke-width="50" stroke-linecap="round"/>
</svg>
